<svg width="183" height="40" viewBox="0 0 183 40" fill="none" xmlns="http://www.w3.org/2000/svg">
<path d="M85.2793 26.5357C85.2793 22.4184 87.9543 19.001 92.9599 19.001C97.9655 19.001 100.641 22.4184 100.641 26.5357C100.641 30.653 97.9655 34.0704 92.9599 34.0704C87.9543 34.0704 85.2793 30.653 85.2793 26.5357ZM96.7901 26.5357C96.7901 23.5918 95.1486 21.9655 92.9599 21.9655C90.751 21.9655 89.1297 23.6124 89.1297 26.5357C89.1297 29.459 90.7712 31.1059 92.9599 31.1059C95.1486 31.1059 96.7901 29.4796 96.7901 26.5357Z" fill="white"/>
<path d="M69.2913 19.9275C68.2983 19.4128 66.7378 18.9805 64.995 18.9805C60.8001 18.9805 57.8008 21.8214 57.8008 26.474C57.8008 31.353 60.9622 34.0705 64.9545 34.0705C66.3731 34.0705 67.6701 33.7205 68.8455 33.0206V33.6176C68.8455 36.0468 67.5485 36.6232 64.8126 36.6232C62.0971 36.6232 60.3137 35.738 59.341 35.3057L59.3612 38.8054C60.6177 39.4024 62.705 39.9994 65.2179 39.9994C69.8385 39.9994 72.554 37.632 72.554 33.494V19.1246C71.257 19.1246 70.1627 19.3922 69.2913 19.9275ZM65.8664 31.106C63.2927 31.106 61.6512 29.2738 61.6512 26.4946C61.6512 23.1801 63.9007 21.9449 65.9475 21.9449C66.8594 21.9449 67.8322 22.192 68.8657 22.6655V30.1384C67.8727 30.7972 66.8797 31.106 65.8664 31.106Z" fill="white"/>
<path d="M79.6468 23.1595V33.8028H75.918V19.1245C77.2352 19.1245 78.3701 19.4127 79.3226 19.9891C80.8425 19.3304 82.5042 19.001 84.2876 19.001V22.5625C82.5042 22.5419 80.9438 22.7477 79.6468 23.1595Z" fill="white"/>
<path d="M141.455 12.5166V33.8032H137.727V13.6077L141.455 12.5166Z" fill="white"/>
<path d="M166.281 24.6625V33.8029H162.573V24.9301C162.573 22.8303 161.418 21.945 159.837 21.945C158.864 21.945 158.013 22.1715 157.263 22.6244C157.344 23.0361 157.405 23.4479 157.405 23.8596V33.8029H153.697V24.9301C153.697 22.8303 152.541 21.945 150.961 21.945C150.049 21.945 149.238 22.1715 148.529 22.645V33.8029H144.82V19.1247C146.138 19.1247 147.333 19.4129 148.164 19.9687C149.522 19.3305 150.859 19.0012 152.197 19.0012C153.798 19.0012 155.075 19.4335 156.007 20.2775C157.162 19.4335 158.682 19.0012 160.567 19.0012C164.072 18.9806 166.281 20.7922 166.281 24.6625Z" fill="white"/>
<path d="M52.3284 33.1235C51.3962 33.597 49.8965 34.0705 48.1132 34.0705C44.1006 34.0705 41 31.353 41 26.5769C41 21.8214 44.1006 18.9805 48.1132 18.9805C49.6533 18.9805 51.0719 19.2893 52.3487 19.8863C53.2403 19.3716 54.3144 19.104 55.6114 19.104V33.9264C54.2941 33.947 53.1998 33.6793 52.3284 33.1235ZM49.1062 31.106C49.9371 31.106 50.8693 30.8795 51.8825 30.4061V22.5831C50.9301 22.1508 50.0181 21.9449 49.1467 21.9449C46.6946 21.9449 44.8302 23.4272 44.8302 26.5564C44.8302 28.7591 45.884 31.106 49.1062 31.106Z" fill="white"/>
<path d="M131.1 33.1235C130.168 33.597 128.668 34.0705 126.885 34.0705C122.872 34.0705 119.771 31.353 119.771 26.5769C119.771 21.8214 122.872 18.9805 126.885 18.9805C128.425 18.9805 129.843 19.2893 131.12 19.8863C132.012 19.3716 133.086 19.104 134.383 19.104V33.9264C133.066 33.947 131.971 33.6793 131.1 33.1235ZM127.878 31.106C128.709 31.106 129.641 30.8795 130.654 30.4061V22.5831C129.702 22.1508 128.79 21.9449 127.918 21.9449C125.466 21.9449 123.602 23.4272 123.602 26.5564C123.622 28.7591 124.655 31.106 127.878 31.106Z" fill="white"/>
<path d="M179.717 33.1235C178.785 33.597 177.285 34.0705 175.502 34.0705C171.489 34.0705 168.389 31.353 168.389 26.5769C168.389 21.8214 171.489 18.9805 175.502 18.9805C177.042 18.9805 178.461 19.2893 179.737 19.8863C180.629 19.3716 181.703 19.104 183 19.104V33.9264C181.683 33.947 180.588 33.6793 179.717 33.1235ZM176.495 31.106C177.326 31.106 178.258 30.8795 179.271 30.4061V22.5831C178.319 22.1508 177.407 21.9449 176.535 21.9449C174.083 21.9449 172.219 23.4272 172.219 26.5564C172.219 28.7591 173.273 31.106 176.495 31.106Z" fill="white"/>
<path d="M110.612 18.9805C108.87 18.9805 107.309 19.4128 106.316 19.9275C105.425 19.3922 104.33 19.1246 103.033 19.1246V39.7318H106.742V33.0206C107.917 33.7205 109.234 34.0705 110.633 34.0705C114.645 34.0705 117.786 31.353 117.786 26.474C117.786 21.8214 114.787 18.9805 110.612 18.9805ZM109.741 31.106C108.728 31.106 107.735 30.7766 106.742 30.1384V22.6655C107.775 22.192 108.748 21.9449 109.66 21.9449C111.707 21.9449 113.956 23.1801 113.956 26.4946C113.936 29.2738 112.295 31.106 109.741 31.106Z" fill="white"/>
<path d="M32.4671 22.9541C31.8193 13.1137 22.3452 4.34378 16.9604 0.24704C16.758 0.0823466 16.4948 0 16.2519 0C16.0089 0 15.7458 0.0823466 15.5433 0.24704C10.1585 4.34378 0.684378 13.1137 0.0365765 22.9541C-0.590981 32.424 6.93971 40.041 16.2519 39.9998C25.564 40.041 33.0744 32.424 32.4671 22.9541ZM29.1472 21.019C25.645 21.2454 20.7662 22.7071 17.7904 25.6304V20.9572C17.7904 16.0164 23.4586 14.4724 26.313 14.143C27.7098 16.3046 28.7625 18.6309 29.1472 21.019ZM14.7133 36.6236C9.32848 36.006 3.47802 31.8064 3.21485 24.2922C6.71703 24.601 14.7133 26.5156 14.7133 33.3092V36.6236ZM14.7133 25.6304C11.7375 22.6865 6.85874 21.2454 3.35656 21.019C3.72095 18.6309 4.79387 16.3046 6.19069 14.143C9.04507 14.4724 14.7133 16.0164 14.7133 20.9572V25.6304ZM16.2519 15.8105C14.4704 13.299 11.3124 11.7961 8.39726 11.1785C11.0087 8.04937 14.0453 5.47605 16.0292 3.95263C16.0899 3.89087 16.1911 3.87029 16.2721 3.87029C16.3531 3.87029 16.4341 3.89087 16.515 3.95263C18.4989 5.49663 21.5355 8.04937 24.1469 11.1785C21.1913 11.7961 18.0333 13.3196 16.2519 15.8105ZM17.7904 36.6236V33.3092C17.7904 26.5362 25.7867 24.6216 29.2889 24.2922C29.0257 31.8064 23.155 36.0266 17.7904 36.6236Z" fill="url(#paint0_linear_394_7026)"/>
<defs>
<linearGradient id="paint0_linear_394_7026" x1="-4.31438" y1="43.7831" x2="38.117" y2="2.05829" gradientUnits="userSpaceOnUse">
<stop stop-color="#7D0000"/>
<stop offset="0.5" stop-color="#FF6400"/>
<stop offset="1" stop-color="#FFE600"/>
</linearGradient>
</defs>
</svg>
